{
    "asset" : {
        "generator" : "Khronos glTF Blender I/O v1.3.48",
        "version" : "2.0"
    },
    "scene" : 0,
    "scenes" : [
        {
            "name" : "Scene",
            "nodes" : [
                0,
                1
            ]
        }
    ],
    "nodes" : [
        {
            "mesh" : 0,
            "name" : "Cube"
        },
        {
            "mesh" : 1,
            "name" : "cube_collider",
            "scale" : [
                0.1869295835494995,
                0.1869295835494995,
                0.28147631883621216
            ],
            "translation" : [
                0,
                0,
                -0.1070365309715271
            ]
        }
    ],
    "materials" : [
        {
            "doubleSided" : true,
            "emissiveFactor" : [
                0,
                0,
                0
            ],
            "name" : "Glass",
            "pbrMetallicRoughness" : {
                "baseColorFactor" : [
                    0.1951887309551239,
                    0.8000000715255737,
                    0.6892093420028687,
                    1
                ],
                "metallicFactor" : 1,
                "roughnessFactor" : 0.2914285659790039
            }
        },
        {
            "doubleSided" : true,
            "emissiveFactor" : [
                0,
                0,
                0
            ],
            "name" : "Case",
            "pbrMetallicRoughness" : {
                "baseColorFactor" : [
                    0.03310273587703705,
                    0.03310273587703705,
                    0.03310273587703705,
                    1
                ],
                "metallicFactor" : 1,
                "roughnessFactor" : 0.2199999988079071
            }
        }
    ],
    "meshes" : [
        {
            "name" : "Cube.001",
            "primitives" : [
                {
                    "attributes" : {
                        "POSITION" : 0,
                        "NORMAL" : 1,
                        "TEXCOORD_0" : 2
                    },
                    "indices" : 3,
                    "material" : 0
                },
                {
                    "attributes" : {
                        "POSITION" : 4,
                        "NORMAL" : 5,
                        "TEXCOORD_0" : 6
                    },
                    "indices" : 7,
                    "material" : 1
                }
            ]
        },
        {
            "name" : "Cube.002",
            "primitives" : [
                {
                    "attributes" : {
                        "POSITION" : 8,
                        "NORMAL" : 9,
                        "TEXCOORD_0" : 10
                    },
                    "indices" : 11
                }
            ]
        }
    ],
    "accessors" : [
        {
            "bufferView" : 0,
            "componentType" : 5126,
            "count" : 113,
            "max" : [
                0.1501132994890213,
                0.15011318027973175,
                0.16542059183120728
            ],
            "min" : [
                -0.1501130908727646,
                -0.15011315047740936,
                0.015307128429412842
            ],
            "type" : "VEC3"
        },
        {
            "bufferView" : 1,
            "componentType" : 5126,
            "count" : 113,
            "type" : "VEC3"
        },
        {
            "bufferView" : 2,
            "componentType" : 5126,
            "count" : 113,
            "type" : "VEC2"
        },
        {
            "bufferView" : 3,
            "componentType" : 5123,
            "count" : 480,
            "type" : "SCALAR"
        },
        {
            "bufferView" : 4,
            "componentType" : 5126,
            "count" : 72,
            "max" : [
                0.17740710079669952,
                0.17740705609321594,
                0.02250349521636963
            ],
            "min" : [
                -0.17740695178508759,
                -0.17740701138973236,
                -0.3323104977607727
            ],
            "type" : "VEC3"
        },
        {
            "bufferView" : 5,
            "componentType" : 5126,
            "count" : 72,
            "type" : "VEC3"
        },
        {
            "bufferView" : 6,
            "componentType" : 5126,
            "count" : 72,
            "type" : "VEC2"
        },
        {
            "bufferView" : 7,
            "componentType" : 5123,
            "count" : 276,
            "type" : "SCALAR"
        },
        {
            "bufferView" : 8,
            "componentType" : 5126,
            "count" : 24,
            "max" : [
                1,
                1,
                1
            ],
            "min" : [
                -1,
                -1,
                -1
            ],
            "type" : "VEC3"
        },
        {
            "bufferView" : 9,
            "componentType" : 5126,
            "count" : 24,
            "type" : "VEC3"
        },
        {
            "bufferView" : 10,
            "componentType" : 5126,
            "count" : 24,
            "type" : "VEC2"
        },
        {
            "bufferView" : 11,
            "componentType" : 5123,
            "count" : 36,
            "type" : "SCALAR"
        }
    ],
    "bufferViews" : [
        {
            "buffer" : 0,
            "byteLength" : 1356,
            "byteOffset" : 0
        },
        {
            "buffer" : 0,
            "byteLength" : 1356,
            "byteOffset" : 1356
        },
        {
            "buffer" : 0,
            "byteLength" : 904,
            "byteOffset" : 2712
        },
        {
            "buffer" : 0,
            "byteLength" : 960,
            "byteOffset" : 3616
        },
        {
            "buffer" : 0,
            "byteLength" : 864,
            "byteOffset" : 4576
        },
        {
            "buffer" : 0,
            "byteLength" : 864,
            "byteOffset" : 5440
        },
        {
            "buffer" : 0,
            "byteLength" : 576,
            "byteOffset" : 6304
        },
        {
            "buffer" : 0,
            "byteLength" : 552,
            "byteOffset" : 6880
        },
        {
            "buffer" : 0,
            "byteLength" : 288,
            "byteOffset" : 7432
        },
        {
            "buffer" : 0,
            "byteLength" : 288,
            "byteOffset" : 7720
        },
        {
            "buffer" : 0,
            "byteLength" : 192,
            "byteOffset" : 8008
        },
        {
            "buffer" : 0,
            "byteLength" : 72,
            "byteOffset" : 8200
        }
    ],
    "buffers" : [
        {
            "byteLength" : 8272,
            "uri" : "data:application/octet-stream;base64,"
        }
    ]
}
